<svg width="36" height="36" viewBox="0 0 36 36" fill="none" xmlns="http://www.w3.org/2000/svg">
<path d="M18 33C26.2843 33 33 26.2843 33 18C33 9.71573 26.2843 3 18 3C9.71573 3 3 9.71573 3 18C3 26.2843 9.71573 33 18 33Z" stroke="white" stroke-width="1.5" stroke-linecap="round" stroke-linejoin="round"/>
<path d="M12 22.5C12.6986 23.4315 13.6045 24.1875 14.6459 24.7082C15.6873 25.2289 16.8357 25.5 18 25.5C19.1643 25.5 20.3127 25.2289 21.3541 24.7082C22.3955 24.1875 23.3014 23.4315 24 22.5" stroke="white" stroke-width="1.5" stroke-linecap="round" stroke-linejoin="round"/>
<path d="M12.0135 13.5H12M24 13.5H23.9865" stroke="white" stroke-width="2" stroke-linecap="round" stroke-linejoin="round"/>
</svg>
